<mxfile host="app.diagrams.net" modified="2024-03-26T12:27:32.223Z" agent="Mozilla/5.0 (Windows NT 10.0; Win64; x64) AppleWebKit/537.36 (KHTML, like Gecko) Chrome/122.0.0.0 Safari/537.36 Edg/122.0.0.0" etag="VkYN7ywZ4yF8e4vDWvLb" version="24.1.0" type="github">
  <diagram name="第 1 页" id="_mK1rpeInKig8EZD3MZd">
    <mxGraphModel dx="1328" dy="1136" grid="0" gridSize="10" guides="1" tooltips="1" connect="1" arrows="1" fold="1" page="0" pageScale="1" pageWidth="827" pageHeight="1169" math="0" shadow="0">
      <root>
        <mxCell id="0" />
        <mxCell id="1" parent="0" />
        <mxCell id="ZrGJoh0EI-ShpoaBizYV-5" value="" style="strokeWidth=1;shadow=0;dashed=0;align=center;html=1;shape=mxgraph.mockup.containers.browserWindow;rSize=0;strokeColor=#666666;strokeColor2=#008cff;strokeColor3=#c4c4c4;mainText=,;recursiveResize=0;" parent="1" vertex="1">
          <mxGeometry x="-190" y="-24" width="736" height="433" as="geometry" />
        </mxCell>
        <mxCell id="ZrGJoh0EI-ShpoaBizYV-6" value="&lt;font style=&quot;font-size: 12px;&quot;&gt;&lt;span style=&quot;background-color: initial;&quot;&gt;&lt;span style=&quot;font-family: 宋体;&quot; class=&quot;15&quot;&gt;&lt;font color=&quot;#080808&quot; style=&quot;font-size: 12px;&quot; face=&quot;Times New Roman&quot;&gt;Assigns Home&amp;nbsp;&lt;/font&gt;&lt;/span&gt;&lt;/span&gt;Page&amp;nbsp;&lt;/font&gt;" style="strokeWidth=1;shadow=0;dashed=0;align=center;html=1;shape=mxgraph.mockup.containers.anchor;fontSize=17;fontColor=#666666;align=left;whiteSpace=wrap;" parent="ZrGJoh0EI-ShpoaBizYV-5" vertex="1">
          <mxGeometry x="60" y="14" width="224" height="26" as="geometry" />
        </mxCell>
        <mxCell id="ZrGJoh0EI-ShpoaBizYV-7" value="https://www.draw.io" style="strokeWidth=1;shadow=0;dashed=0;align=center;html=1;shape=mxgraph.mockup.containers.anchor;rSize=0;fontSize=17;fontColor=#666666;align=left;" parent="ZrGJoh0EI-ShpoaBizYV-5" vertex="1">
          <mxGeometry x="130" y="60" width="250" height="26" as="geometry" />
        </mxCell>
        <mxCell id="ZrGJoh0EI-ShpoaBizYV-10" value="" style="verticalLabelPosition=bottom;shadow=0;dashed=0;align=center;html=1;verticalAlign=top;strokeWidth=1;shape=mxgraph.mockup.containers.userMale;strokeColor=#666666;strokeColor2=#008cff;" parent="ZrGJoh0EI-ShpoaBizYV-5" vertex="1">
          <mxGeometry x="18" y="129" width="51" height="52" as="geometry" />
        </mxCell>
        <mxCell id="ZrGJoh0EI-ShpoaBizYV-11" value="" style="verticalLabelPosition=bottom;shadow=0;dashed=0;align=center;html=1;verticalAlign=top;strokeWidth=1;shape=mxgraph.mockup.markup.line;strokeColor=#999999;direction=north;" parent="ZrGJoh0EI-ShpoaBizYV-5" vertex="1">
          <mxGeometry x="119" y="111" width="20" height="322" as="geometry" />
        </mxCell>
        <mxCell id="ZrGJoh0EI-ShpoaBizYV-12" value="" style="verticalLabelPosition=bottom;shadow=0;dashed=0;align=center;html=1;verticalAlign=top;strokeWidth=1;shape=mxgraph.mockup.navigation.scrollBar;strokeColor=#999999;barPos=96.171;fillColor2=#99ddff;strokeColor2=none;direction=north;" parent="ZrGJoh0EI-ShpoaBizYV-5" vertex="1">
          <mxGeometry x="716" y="111" width="20" height="320" as="geometry" />
        </mxCell>
        <mxCell id="ZrGJoh0EI-ShpoaBizYV-13" value="Name: XXX" style="text;strokeColor=none;fillColor=none;html=1;align=center;verticalAlign=middle;whiteSpace=wrap;rounded=0;fontSize=16;" parent="ZrGJoh0EI-ShpoaBizYV-5" vertex="1">
          <mxGeometry x="2" y="197" width="117" height="30" as="geometry" />
        </mxCell>
        <mxCell id="ZrGJoh0EI-ShpoaBizYV-14" value="ID: XXXXXX" style="text;strokeColor=none;fillColor=none;html=1;align=center;verticalAlign=middle;whiteSpace=wrap;rounded=0;fontSize=16;" parent="ZrGJoh0EI-ShpoaBizYV-5" vertex="1">
          <mxGeometry x="8" y="230" width="108" height="30" as="geometry" />
        </mxCell>
        <mxCell id="ZrGJoh0EI-ShpoaBizYV-16" value="Detail: XXXX&lt;div&gt;XXXXX&lt;span style=&quot;background-color: initial;&quot;&gt;X&lt;/span&gt;&lt;span style=&quot;background-color: initial;&quot;&gt;X&lt;/span&gt;&lt;span style=&quot;background-color: initial;&quot;&gt;XX&lt;/span&gt;&lt;/div&gt;&lt;div&gt;&lt;span style=&quot;background-color: initial;&quot;&gt;XXXXXXXXX&lt;/span&gt;&lt;/div&gt;" style="text;strokeColor=none;fillColor=none;html=1;align=center;verticalAlign=middle;whiteSpace=wrap;rounded=0;fontSize=16;" parent="ZrGJoh0EI-ShpoaBizYV-5" vertex="1">
          <mxGeometry x="8" y="264" width="114" height="62" as="geometry" />
        </mxCell>
        <mxCell id="BWHUOpJET-gqt2DuxPi3-20" value="" style="strokeWidth=1;shadow=0;dashed=0;align=center;html=1;shape=mxgraph.mockup.rrect;rSize=10;fillColor=#ffffff;strokeColor=#666666;" vertex="1" parent="ZrGJoh0EI-ShpoaBizYV-5">
          <mxGeometry x="144" y="129" width="557" height="44" as="geometry" />
        </mxCell>
        <mxCell id="BWHUOpJET-gqt2DuxPi3-21" value="Button 2" style="strokeColor=inherit;fillColor=inherit;gradientColor=inherit;strokeWidth=1;shadow=0;dashed=0;align=center;html=1;shape=mxgraph.mockup.rrect;rSize=0;fontSize=17;fontColor=#666666;fontStyle=1;resizeHeight=1;whiteSpace=wrap;" vertex="1" parent="BWHUOpJET-gqt2DuxPi3-20">
          <mxGeometry width="125" height="44" relative="1" as="geometry">
            <mxPoint x="125" as="offset" />
          </mxGeometry>
        </mxCell>
        <mxCell id="BWHUOpJET-gqt2DuxPi3-22" value="Button 3" style="strokeColor=inherit;fillColor=inherit;gradientColor=inherit;strokeWidth=1;shadow=0;dashed=0;align=center;html=1;shape=mxgraph.mockup.rrect;rSize=0;fontSize=17;fontColor=#666666;fontStyle=1;resizeHeight=1;whiteSpace=wrap;" vertex="1" parent="BWHUOpJET-gqt2DuxPi3-20">
          <mxGeometry width="125" height="44" relative="1" as="geometry">
            <mxPoint x="250" as="offset" />
          </mxGeometry>
        </mxCell>
        <mxCell id="BWHUOpJET-gqt2DuxPi3-23" value="Button 4" style="strokeColor=inherit;fillColor=inherit;gradientColor=inherit;strokeWidth=1;shadow=0;dashed=0;align=center;html=1;shape=mxgraph.mockup.rightButton;rSize=10;fontSize=17;fontColor=#666666;fontStyle=1;resizeHeight=1;whiteSpace=wrap;" vertex="1" parent="BWHUOpJET-gqt2DuxPi3-20">
          <mxGeometry x="1" width="125" height="44" relative="1" as="geometry">
            <mxPoint x="-125" as="offset" />
          </mxGeometry>
        </mxCell>
        <mxCell id="BWHUOpJET-gqt2DuxPi3-24" value="Students" style="strokeWidth=1;shadow=0;dashed=0;align=center;html=1;shape=mxgraph.mockup.leftButton;rSize=10;fontSize=17;fontColor=#ffffff;fontStyle=1;fillColor=#008cff;strokeColor=#008cff;resizeHeight=1;whiteSpace=wrap;" vertex="1" parent="BWHUOpJET-gqt2DuxPi3-20">
          <mxGeometry width="125" height="44" relative="1" as="geometry" />
        </mxCell>
        <mxCell id="BWHUOpJET-gqt2DuxPi3-1" value="" style="strokeWidth=1;shadow=0;dashed=0;align=center;html=1;shape=mxgraph.mockup.containers.browserWindow;rSize=0;strokeColor=#666666;strokeColor2=#008cff;strokeColor3=#c4c4c4;mainText=,;recursiveResize=0;" vertex="1" parent="1">
          <mxGeometry x="-190" y="995" width="736" height="433" as="geometry" />
        </mxCell>
        <mxCell id="BWHUOpJET-gqt2DuxPi3-2" value="&lt;font style=&quot;font-size: 12px;&quot;&gt;&lt;span style=&quot;background-color: initial;&quot;&gt;&lt;span style=&quot;font-family: 宋体;&quot; class=&quot;15&quot;&gt;&lt;font color=&quot;#080808&quot; style=&quot;font-size: 12px;&quot; face=&quot;Times New Roman&quot;&gt;Students Home&amp;nbsp;&lt;/font&gt;&lt;/span&gt;&lt;/span&gt;Page&amp;nbsp;&lt;/font&gt;" style="strokeWidth=1;shadow=0;dashed=0;align=center;html=1;shape=mxgraph.mockup.containers.anchor;fontSize=17;fontColor=#666666;align=left;whiteSpace=wrap;" vertex="1" parent="BWHUOpJET-gqt2DuxPi3-1">
          <mxGeometry x="60" y="14" width="224" height="26" as="geometry" />
        </mxCell>
        <mxCell id="BWHUOpJET-gqt2DuxPi3-3" value="https://www.draw.io" style="strokeWidth=1;shadow=0;dashed=0;align=center;html=1;shape=mxgraph.mockup.containers.anchor;rSize=0;fontSize=17;fontColor=#666666;align=left;" vertex="1" parent="BWHUOpJET-gqt2DuxPi3-1">
          <mxGeometry x="130" y="60" width="250" height="26" as="geometry" />
        </mxCell>
        <mxCell id="BWHUOpJET-gqt2DuxPi3-4" value="" style="verticalLabelPosition=bottom;shadow=0;dashed=0;align=center;html=1;verticalAlign=top;strokeWidth=1;shape=mxgraph.mockup.containers.userMale;strokeColor=#666666;strokeColor2=#008cff;" vertex="1" parent="BWHUOpJET-gqt2DuxPi3-1">
          <mxGeometry x="18" y="129" width="51" height="52" as="geometry" />
        </mxCell>
        <mxCell id="BWHUOpJET-gqt2DuxPi3-5" value="" style="verticalLabelPosition=bottom;shadow=0;dashed=0;align=center;html=1;verticalAlign=top;strokeWidth=1;shape=mxgraph.mockup.markup.line;strokeColor=#999999;direction=north;" vertex="1" parent="BWHUOpJET-gqt2DuxPi3-1">
          <mxGeometry x="119" y="111" width="20" height="322" as="geometry" />
        </mxCell>
        <mxCell id="BWHUOpJET-gqt2DuxPi3-6" value="" style="verticalLabelPosition=bottom;shadow=0;dashed=0;align=center;html=1;verticalAlign=top;strokeWidth=1;shape=mxgraph.mockup.navigation.scrollBar;strokeColor=#999999;barPos=96.171;fillColor2=#99ddff;strokeColor2=none;direction=north;" vertex="1" parent="BWHUOpJET-gqt2DuxPi3-1">
          <mxGeometry x="716" y="111" width="20" height="320" as="geometry" />
        </mxCell>
        <mxCell id="BWHUOpJET-gqt2DuxPi3-7" value="Name: XXX" style="text;strokeColor=none;fillColor=none;html=1;align=center;verticalAlign=middle;whiteSpace=wrap;rounded=0;fontSize=16;" vertex="1" parent="BWHUOpJET-gqt2DuxPi3-1">
          <mxGeometry x="2" y="197" width="117" height="30" as="geometry" />
        </mxCell>
        <mxCell id="BWHUOpJET-gqt2DuxPi3-8" value="ID: XXXXXX" style="text;strokeColor=none;fillColor=none;html=1;align=center;verticalAlign=middle;whiteSpace=wrap;rounded=0;fontSize=16;" vertex="1" parent="BWHUOpJET-gqt2DuxPi3-1">
          <mxGeometry x="8" y="230" width="108" height="30" as="geometry" />
        </mxCell>
        <mxCell id="BWHUOpJET-gqt2DuxPi3-9" value="Detail: XXXX&lt;div&gt;XXXXX&lt;span style=&quot;background-color: initial;&quot;&gt;X&lt;/span&gt;&lt;span style=&quot;background-color: initial;&quot;&gt;X&lt;/span&gt;&lt;span style=&quot;background-color: initial;&quot;&gt;XX&lt;/span&gt;&lt;/div&gt;&lt;div&gt;&lt;span style=&quot;background-color: initial;&quot;&gt;XXXXXXXXX&lt;/span&gt;&lt;/div&gt;" style="text;strokeColor=none;fillColor=none;html=1;align=center;verticalAlign=middle;whiteSpace=wrap;rounded=0;fontSize=16;" vertex="1" parent="BWHUOpJET-gqt2DuxPi3-1">
          <mxGeometry x="8" y="264" width="114" height="62" as="geometry" />
        </mxCell>
        <mxCell id="BWHUOpJET-gqt2DuxPi3-10" value="" style="strokeWidth=1;shadow=0;dashed=0;align=center;html=1;shape=mxgraph.mockup.containers.browserWindow;rSize=0;strokeColor=#666666;strokeColor2=#008cff;strokeColor3=#c4c4c4;mainText=,;recursiveResize=0;" vertex="1" parent="1">
          <mxGeometry x="-190" y="500" width="736" height="433" as="geometry" />
        </mxCell>
        <mxCell id="BWHUOpJET-gqt2DuxPi3-11" value="&lt;font style=&quot;font-size: 12px;&quot;&gt;&lt;span style=&quot;background-color: initial;&quot;&gt;&lt;span style=&quot;font-family: 宋体;&quot; class=&quot;15&quot;&gt;&lt;font color=&quot;#080808&quot; style=&quot;font-size: 12px;&quot; face=&quot;Times New Roman&quot;&gt;Instructors Home&amp;nbsp;&lt;/font&gt;&lt;/span&gt;&lt;/span&gt;Page&amp;nbsp;&lt;/font&gt;" style="strokeWidth=1;shadow=0;dashed=0;align=center;html=1;shape=mxgraph.mockup.containers.anchor;fontSize=17;fontColor=#666666;align=left;whiteSpace=wrap;" vertex="1" parent="BWHUOpJET-gqt2DuxPi3-10">
          <mxGeometry x="54" y="14" width="224" height="26" as="geometry" />
        </mxCell>
        <mxCell id="BWHUOpJET-gqt2DuxPi3-12" value="https://www.draw.io" style="strokeWidth=1;shadow=0;dashed=0;align=center;html=1;shape=mxgraph.mockup.containers.anchor;rSize=0;fontSize=17;fontColor=#666666;align=left;" vertex="1" parent="BWHUOpJET-gqt2DuxPi3-10">
          <mxGeometry x="130" y="60" width="250" height="26" as="geometry" />
        </mxCell>
        <mxCell id="BWHUOpJET-gqt2DuxPi3-13" value="" style="verticalLabelPosition=bottom;shadow=0;dashed=0;align=center;html=1;verticalAlign=top;strokeWidth=1;shape=mxgraph.mockup.containers.userMale;strokeColor=#666666;strokeColor2=#008cff;" vertex="1" parent="BWHUOpJET-gqt2DuxPi3-10">
          <mxGeometry x="18" y="129" width="51" height="52" as="geometry" />
        </mxCell>
        <mxCell id="BWHUOpJET-gqt2DuxPi3-14" value="" style="verticalLabelPosition=bottom;shadow=0;dashed=0;align=center;html=1;verticalAlign=top;strokeWidth=1;shape=mxgraph.mockup.markup.line;strokeColor=#999999;direction=north;" vertex="1" parent="BWHUOpJET-gqt2DuxPi3-10">
          <mxGeometry x="119" y="111" width="20" height="322" as="geometry" />
        </mxCell>
        <mxCell id="BWHUOpJET-gqt2DuxPi3-15" value="" style="verticalLabelPosition=bottom;shadow=0;dashed=0;align=center;html=1;verticalAlign=top;strokeWidth=1;shape=mxgraph.mockup.navigation.scrollBar;strokeColor=#999999;barPos=96.171;fillColor2=#99ddff;strokeColor2=none;direction=north;" vertex="1" parent="BWHUOpJET-gqt2DuxPi3-10">
          <mxGeometry x="716" y="111" width="20" height="320" as="geometry" />
        </mxCell>
        <mxCell id="BWHUOpJET-gqt2DuxPi3-16" value="Name: XXX" style="text;strokeColor=none;fillColor=none;html=1;align=center;verticalAlign=middle;whiteSpace=wrap;rounded=0;fontSize=16;" vertex="1" parent="BWHUOpJET-gqt2DuxPi3-10">
          <mxGeometry x="2" y="197" width="117" height="30" as="geometry" />
        </mxCell>
        <mxCell id="BWHUOpJET-gqt2DuxPi3-17" value="ID: XXXXXX" style="text;strokeColor=none;fillColor=none;html=1;align=center;verticalAlign=middle;whiteSpace=wrap;rounded=0;fontSize=16;" vertex="1" parent="BWHUOpJET-gqt2DuxPi3-10">
          <mxGeometry x="8" y="230" width="108" height="30" as="geometry" />
        </mxCell>
        <mxCell id="BWHUOpJET-gqt2DuxPi3-18" value="Detail: XXXX&lt;div&gt;XXXXX&lt;span style=&quot;background-color: initial;&quot;&gt;X&lt;/span&gt;&lt;span style=&quot;background-color: initial;&quot;&gt;X&lt;/span&gt;&lt;span style=&quot;background-color: initial;&quot;&gt;XX&lt;/span&gt;&lt;/div&gt;&lt;div&gt;&lt;span style=&quot;background-color: initial;&quot;&gt;XXXXXXXXX&lt;/span&gt;&lt;/div&gt;" style="text;strokeColor=none;fillColor=none;html=1;align=center;verticalAlign=middle;whiteSpace=wrap;rounded=0;fontSize=16;" vertex="1" parent="BWHUOpJET-gqt2DuxPi3-10">
          <mxGeometry x="8" y="264" width="114" height="62" as="geometry" />
        </mxCell>
      </root>
    </mxGraphModel>
  </diagram>
</mxfile>
